<svg xmlns="http://www.w3.org/2000/svg" viewBox="0 0 1024 1024">
  <defs>
    <linearGradient id="bg" x1="0" y1="0" x2="0" y2="1">
      <stop offset="0" stop-color="#ffffff"/>
      <stop offset="1" stop-color="#eaf7ff"/>
    </linearGradient>
    <linearGradient id="blue" x1="0" y1="1" x2="1" y2="0">
      <stop offset="0" stop-color="#0643b7"/>
      <stop offset="0.55" stop-color="#009ff0"/>
      <stop offset="1" stop-color="#5ee5ef"/>
    </linearGradient>
    <linearGradient id="deepBlue" x1="0" y1="1" x2="1" y2="0">
      <stop offset="0" stop-color="#0030a0"/>
      <stop offset="1" stop-color="#00b4ef"/>
    </linearGradient>
    <linearGradient id="pageBlue" x1="0" y1="1" x2="1" y2="0">
      <stop offset="0" stop-color="#0084df"/>
      <stop offset="1" stop-color="#70e7f0"/>
    </linearGradient>
    <linearGradient id="gold" x1="0" y1="1" x2="1" y2="0">
      <stop offset="0" stop-color="#ec9300"/>
      <stop offset="1" stop-color="#ffe36a"/>
    </linearGradient>
    <filter id="shadow" x="-25%" y="-25%" width="150%" height="150%">
      <feDropShadow dx="0" dy="14" stdDeviation="14" flood-color="#004ca6" flood-opacity="0.28"/>
    </filter>
    <filter id="softShadow" x="-20%" y="-20%" width="140%" height="140%">
      <feDropShadow dx="0" dy="10" stdDeviation="20" flood-color="#178fd5" flood-opacity="0.20"/>
    </filter>
  </defs>

  <rect width="1024" height="1024" fill="#f6fbff"/>
  <rect x="18" y="18" width="988" height="988" rx="132" fill="url(#bg)" filter="url(#softShadow)"/>

  <g filter="url(#shadow)">
    <path d="M112 748V335c0-22 17-39 39-39h58v455c105-35 206-2 303 104-108-56-222-79-400-53z" fill="url(#deepBlue)" stroke="#003aa4" stroke-width="8" stroke-linejoin="round"/>
    <path d="M177 696V298c0-19 15-34 34-34h61v456c92-5 174 32 240 135-88-69-195-103-335-93z" fill="url(#blue)" stroke="#006bc9" stroke-width="7" stroke-linejoin="round"/>

    <path d="M216 634V255c79-32 195 20 296 142v458c-82-92-179-141-296-221z" fill="#fbfdff" stroke="#e3f0fb" stroke-width="5" stroke-linejoin="round"/>
    <path d="M512 397c57-92 149-139 252-148v469c-91 6-179 48-252 137z" fill="url(#pageBlue)" stroke="#0070c9" stroke-width="7" stroke-linejoin="round"/>

    <path d="M512 397v458" stroke="#055abf" stroke-width="8" stroke-linecap="round" opacity="0.55"/>
    <path d="M113 782c145-42 285-15 399 73" fill="none" stroke="#003aa4" stroke-width="30" stroke-linecap="round"/>
    <path d="M146 738c126-27 256 12 366 117" fill="none" stroke="#11b5ef" stroke-width="24" stroke-linecap="round"/>
    <path d="M177 697c103-3 223 51 335 158" fill="none" stroke="#0643b7" stroke-width="19" stroke-linecap="round" opacity="0.75"/>

    <g opacity="0.68">
      <rect x="562" y="501" width="29" height="118" rx="5" fill="#cbf7ff"/>
      <rect x="605" y="454" width="29" height="165" rx="5" fill="#cbf7ff"/>
      <rect x="648" y="407" width="29" height="212" rx="5" fill="#cbf7ff"/>
      <rect x="691" y="352" width="29" height="267" rx="5" fill="#cbf7ff"/>
    </g>

    <path d="M512 855C630 622 737 414 842 289l-43-19 121-93 36 148-41-17C808 476 704 681 581 855z" fill="url(#blue)" stroke="#0751bd" stroke-width="8" stroke-linejoin="round"/>
    <path d="M570 807C680 602 775 426 862 320" fill="none" stroke="#ffffff" stroke-width="12" stroke-linecap="round" opacity="0.75"/>

    <path d="M773 719l135-231 34 243-116 98z" fill="#ffffff" stroke="#0751bd" stroke-width="8" stroke-linejoin="round"/>
    <path d="M813 701l77-145 26 153-68 57z" fill="url(#deepBlue)"/>
    <path d="M833 785l82-76 27 22-15 70z" fill="url(#gold)"/>
  </g>

  <path d="M835 69l22 62 62 22-62 22-22 62-22-62-62-22 62-22z" fill="url(#gold)"/>
  <path d="M835 102l12 39 39 12-39 12-12 39-12-39-39-12 39-12z" fill="#ffe37a" opacity="0.85"/>
</svg>
